<?xml version="1.0" encoding="UTF-8" standalone="no"?>
<svg
   viewBox="0 0 24 24"
   width="24px"
   height="24px"
   version="1.1"
   id="svg3"
   sodipodi:docname="rename_col.svg"
   inkscape:version="1.4 (1:1.4+202410161351+e7c3feb100)"
   xmlns:inkscape="http://www.inkscape.org/namespaces/inkscape"
   xmlns:sodipodi="http://sodipodi.sourceforge.net/DTD/sodipodi-0.dtd"
   xmlns="http://www.w3.org/2000/svg"
   xmlns:svg="http://www.w3.org/2000/svg">
  <defs
     id="defs3">
    <clipPath
       clipPathUnits="userSpaceOnUse"
       id="clipPath55">
      <path
         id="path55"
         style="fill:#ff0000;fill-opacity:1;fill-rule:nonzero;stroke:none"
         d="M 24,0 H 0 v 24 h 24 z m -0.863281,14.443359 c 1.9e-5,0.06185 -0.0036,0.124325 0,0.185547 -0.05278,0.09395 -0.09333,0.197159 -0.158203,0.283203 -0.04236,0.05618 -0.104167,0.09606 -0.160157,0.138672 -0.01889,0.01438 -0.03895,0.0258 -0.05859,0.03906 0.01166,0.05008 0.02632,0.0993 0.02539,0.15039 -0.001,0.05632 -0.0073,0.105617 -0.01367,0.154297 0.0714,0.102664 0.107512,0.220675 0.0957,0.384766 -0.01447,0.201031 -0.100522,0.294636 -0.210937,0.402344 -0.01568,0.06413 -0.04476,0.135645 -0.09375,0.222656 -0.108704,0.193075 -0.376104,0.250541 -0.570313,0.294922 -0.11406,0.01924 -0.227095,0.0343 -0.341797,0.04883 -0.103111,0.04694 -0.206734,0.09392 -0.3125,0.134765 -0.155977,0.05961 -0.321092,0.07684 -0.486328,0.08594 -0.22257,0.0081 -0.445275,0.0084 -0.667968,0.0098 -0.08452,4.4e-4 -0.169387,-2.29e-4 -0.253907,0 -0.08743,0.172405 -0.203271,0.340895 -0.412109,0.388672 -0.130392,0.02986 -0.273437,0.01871 -0.400391,-0.02344 -0.106753,-0.03544 -0.180784,-0.132689 -0.271484,-0.199219 -0.01974,-0.03189 -0.0418,-0.0624 -0.0625,-0.09375 -0.0039,0.04288 -0.0046,0.08598 -0.0078,0.128907 0.02484,0.05502 0.05206,0.11049 0.07031,0.167968 0.0395,0.124368 0.07179,0.318477 0.0293,0.445313 -0.0236,0.07044 -0.05059,0.131853 -0.08203,0.1875 0.02219,0.25395 -0.03413,0.509905 -0.07422,0.759765 -0.07171,0.413742 -0.104098,0.83251 -0.111328,1.251954 -8.9e-5,0.277059 0.02377,0.553894 0.04297,0.830078 0.0098,0.141427 0.01876,0.282225 0.02539,0.423828 -8.2e-5,0.293526 -0.09492,0.506513 -0.517578,0.589844 -0.318693,0.06283 -0.476869,-0.262637 -0.578125,-0.472657 -0.004,-0.0088 -0.0059,-0.01848 -0.0098,-0.02734 -0.08609,0.03376 -0.175359,0.05694 -0.265625,0.06445 -0.04839,0.0041 -0.09793,-1.2e-4 -0.146485,0 -0.07074,-0.01736 -0.146027,-0.02385 -0.21289,-0.05273 C 16.763822,21.269254 16.677849,21.171641 16.578125,21 c -0.0094,-0.01624 -0.01547,-0.03541 -0.02344,-0.05273 -0.0065,-9.78e-4 -0.0089,-0.0029 -0.01563,-0.0039 h -0.0019 c -0.695368,0.123763 -0.64916,0.288468 -0.679687,-0.128906 -6.14e-4,-0.0084 -0.0013,-0.01262 -0.002,-0.02148 -3.29e-4,-0.0026 -0.0016,-0.0052 -0.002,-0.0078 -0.124061,-0.112183 -0.201648,-0.339268 -0.255859,-0.49414 -0.109541,-0.317427 -0.115218,-0.639162 -0.111328,-0.970704 0.0069,-0.194556 0.01765,-0.38967 0.0293,-0.583984 -0.03034,-0.121382 -0.05793,-0.243291 -0.07617,-0.367187 -0.04068,-0.321362 -0.04914,-0.645766 -0.01953,-0.96875 0.02047,-0.229007 0.04367,-0.459624 0.07813,-0.6875 -0.233296,0.05097 -0.470276,0.08757 -0.705078,0.130859 -0.253848,0.04775 -0.504338,0.11365 -0.753906,0.179688 -0.147064,0.04332 -0.292907,0.09069 -0.441407,0.128906 -0.136336,0.03497 -0.275923,0.04959 -0.416015,0.05859 -0.171868,0.01203 -0.34257,0.006 -0.513672,-0.01172 -0.16283,-0.0193 -0.322576,-0.05837 -0.480469,-0.101563 -0.122543,-0.0384 -0.247344,-0.07853 -0.357422,-0.146484 -0.031,-0.01913 -0.06163,-0.04208 -0.0918,-0.0625 -0.205362,-0.166358 -0.27224,-0.360572 -0.3125,-0.611328 -0.01859,-0.14409 -0.02592,-0.290324 -0.02539,-0.435547 0.0035,-0.164614 0.05029,-0.321134 0.105468,-0.474609 0.024,-0.05949 0.04942,-0.118602 0.07422,-0.177735 -0.04308,-0.16828 -0.03123,-0.324376 0.05078,-0.482422 0.09046,-0.152768 0.19793,-0.263254 0.359375,-0.33789 0.02246,-0.132284 0.05637,-0.26238 0.113282,-0.384766 0.02133,-0.04585 0.04861,-0.09008 0.07226,-0.134766 0.126679,-0.20996 0.307776,-0.374216 0.529297,-0.480468 0.04193,-0.02011 0.07408,-0.0293 0.109375,-0.04297 0.04766,-0.167726 0.0937,-0.336786 0.177735,-0.488281 0.03092,-0.0557 0.118637,-0.04617 0.179687,-0.06445 0.03989,-0.01195 0.08211,-0.01779 0.123047,-0.02539 0.112051,-0.02073 0.224701,-0.03258 0.33789,-0.04492 0.216705,-0.02569 0.434934,-0.02608 0.652344,-0.01172 0.23858,0.01722 0.469222,0.08102 0.699219,0.142578 0.181348,0.06285 0.372795,0.06687 0.5625,0.07227 0.01239,5.06e-4 0.02472,-3.89e-4 0.03711,0 0.0034,-0.02464 0.0077,-0.05173 0.0098,-0.06836 0.0086,-0.06785 0.01461,-0.135085 0.02148,-0.203125 0.0013,-0.01173 0.0027,-0.02341 0.0039,-0.03516 -8.57e-4,-0.01694 -0.0031,-0.03384 -0.0039,-0.05078 -0.0072,-0.179709 -0.0085,-0.361187 -0.0098,-0.541016 -0.0048,-0.197528 -0.02612,-0.393938 -0.05078,-0.589843 -0.02615,-0.21271 -0.07383,-0.421693 -0.119141,-0.63086 -0.0306,-0.138843 -0.06728,-0.276774 -0.08594,-0.417968 -0.01225,-0.09268 -0.0127,-0.12839 -0.01758,-0.21875 3.45e-4,-0.1605141 0.01495,-0.3256911 0.08008,-0.4746378 0.02045,-0.046774 0.03991,-0.093761 0.07031,-0.1347656 0.04441,-0.059881 0.101923,-0.1111046 0.152344,-0.1660156 0.05708,-0.034801 0.111435,-0.074948 0.171875,-0.1035156 0.25439,-0.12024 0.547317,-0.108761 0.820312,-0.095703 0.281168,0.021519 0.560516,0.055735 0.841797,0.076172 0.223243,0.012773 0.44787,0.00123 0.669922,-0.023437 0.176995,-0.023678 0.35461,-0.047444 0.533203,-0.052734 0.07221,9.783e-4 0.143331,0.00998 0.212891,0.025391 0.01785,0.00272 0.03514,0.00743 0.05273,0.011719 0.03181,0.00775 0.06312,0.015547 0.09375,0.029297 0.0713,0.032008 0.146178,0.0676 0.199218,0.125 0.0038,0.00411 0.0061,0.00943 0.0098,0.013672 0.02401,0.022374 0.04711,0.045643 0.06836,0.072266 0.134096,0.1680077 0.149467,0.2786508 0.205078,0.4707031 0.08981,0.4692267 0.06279,0.9485247 0.02734,1.4218747 -0.04015,0.467152 -0.123669,0.930279 -0.171875,1.396485 -0.009,0.08706 -0.01572,0.174536 -0.02344,0.261718 -0.003,0.04426 -0.005,0.08854 -0.0078,0.132813 0.427117,0.02044 0.854885,0.04075 1.28125,0.07422 0.09688,0.0068 0.192914,0.01751 0.289063,0.0293 0.07213,-0.0067 0.140265,0.0028 0.201172,0.02734 0.170124,0.02804 0.337951,0.06611 0.503906,0.115234 0.160782,0.05056 0.311677,0.128196 0.464844,0.197266 0.177039,0.07633 0.353517,0.152898 0.527344,0.236328 0.192699,0.09847 0.441061,0.217729 0.509765,0.445313 0.01772,0.05871 0.02146,0.119789 0.02148,0.18164 z m -6.046875,6.050782 c -0.0058,0.01505 -0.01118,0.02941 -0.01563,0.04492 -8.7e-4,0.003 8.33e-4,0.01277 0.002,0.0098 0.0068,-0.01772 0.01028,-0.03594 0.01367,-0.05469 z" />
    </clipPath>
    <clipPath
       clipPathUnits="userSpaceOnUse"
       id="clipPath56">
      <path
         id="path56"
         style="fill:#ff0000;fill-opacity:1;fill-rule:nonzero;stroke:none"
         d="M 22,6.3125 H 3 v 14 h 12.605469 c -0.0024,-0.0068 -0.0055,-0.01491 -0.0078,-0.02148 -0.109541,-0.317427 -0.115218,-0.639162 -0.111328,-0.970704 0.0069,-0.194556 0.01765,-0.38967 0.0293,-0.583984 -0.03034,-0.121382 -0.05793,-0.243291 -0.07617,-0.367187 -0.04068,-0.321362 -0.04914,-0.645766 -0.01953,-0.96875 0.02047,-0.229007 0.04367,-0.459624 0.07813,-0.6875 -0.233297,0.05097 -0.470277,0.08757 -0.705078,0.130859 -0.253848,0.04775 -0.504338,0.11365 -0.753907,0.179688 -0.147063,0.04332 -0.292906,0.09069 -0.441406,0.128906 -0.136336,0.03497 -0.275923,0.04959 -0.416015,0.05859 -0.171868,0.01203 -0.34257,0.006 -0.513672,-0.01172 -0.16283,-0.0193 -0.322576,-0.05837 -0.480469,-0.101563 -0.122543,-0.0384 -0.247344,-0.07853 -0.357422,-0.146484 -0.031,-0.01913 -0.06163,-0.04208 -0.0918,-0.0625 -0.205362,-0.166358 -0.27224,-0.360572 -0.3125,-0.611328 -0.01859,-0.14409 -0.02592,-0.290324 -0.02539,-0.435547 0.0035,-0.164614 0.05029,-0.321134 0.105468,-0.474609 0.024,-0.05949 0.04942,-0.118602 0.07422,-0.177735 -0.04308,-0.16828 -0.03123,-0.324376 0.05078,-0.482422 0.09046,-0.152768 0.19793,-0.263254 0.359375,-0.33789 0.02246,-0.132284 0.05637,-0.26238 0.113282,-0.384766 0.02133,-0.04585 0.04861,-0.09008 0.07226,-0.134766 0.126679,-0.20996 0.307776,-0.374216 0.529297,-0.480468 0.04193,-0.02011 0.07408,-0.0293 0.109375,-0.04297 0.04766,-0.167726 0.0937,-0.336786 0.177735,-0.488281 0.03092,-0.0557 0.118637,-0.04617 0.179687,-0.06445 0.03989,-0.01195 0.08211,-0.01779 0.123047,-0.02539 0.112051,-0.02073 0.224701,-0.03258 0.33789,-0.04492 0.216705,-0.02569 0.434933,-0.02608 0.652344,-0.01172 0.23858,0.01722 0.469222,0.08102 0.699219,0.142578 0.181347,0.06285 0.372795,0.06687 0.5625,0.07227 0.01239,5.06e-4 0.02472,-3.89e-4 0.03711,0 0.0034,-0.02464 0.0077,-0.05173 0.0098,-0.06836 0.0086,-0.06785 0.01461,-0.135085 0.02148,-0.203125 0.0013,-0.01173 0.0027,-0.02341 0.0039,-0.03516 -8.58e-4,-0.01694 -0.0031,-0.03384 -0.0039,-0.05078 -0.0072,-0.179709 -0.0085,-0.361187 -0.0098,-0.541016 -0.0048,-0.197528 -0.02612,-0.393938 -0.05078,-0.589843 -0.02615,-0.21271 -0.07383,-0.421693 -0.119141,-0.63086 -0.0306,-0.138843 -0.06728,-0.276774 -0.08594,-0.417968 -0.01225,-0.09268 -0.0127,-0.12839 -0.01758,-0.21875 3.52e-4,-0.1604901 0.01496,-0.3256671 0.08008,-0.4746138 0.02045,-0.046774 0.03991,-0.093761 0.07031,-0.1347656 0.04441,-0.059881 0.101923,-0.1111046 0.152344,-0.1660156 0.05708,-0.034801 0.111435,-0.074948 0.171875,-0.1035156 0.25439,-0.12024 0.547317,-0.108761 0.820312,-0.095703 0.281168,0.021519 0.560516,0.055735 0.841797,0.076172 0.223243,0.012773 0.44787,0.00123 0.669922,-0.023437 0.176995,-0.023678 0.35461,-0.047444 0.533203,-0.052734 0.07221,9.783e-4 0.143331,0.00998 0.212891,0.025391 0.01785,0.00272 0.03514,0.00743 0.05273,0.011719 0.03181,0.00775 0.06312,0.015547 0.09375,0.029297 0.0713,0.032008 0.146178,0.0676 0.199218,0.125 0.0038,0.00411 0.0061,0.00943 0.0098,0.013672 0.02401,0.022374 0.04711,0.045643 0.06836,0.072266 0.134096,0.1680077 0.149467,0.2786508 0.205078,0.4707031 0.08981,0.4692267 0.06279,0.9485247 0.02734,1.4218747 -0.04015,0.467152 -0.123669,0.930279 -0.171875,1.396485 -0.009,0.08706 -0.01572,0.174536 -0.02344,0.261718 -0.003,0.04426 -0.005,0.08854 -0.0078,0.132813 0.427117,0.02044 0.854885,0.04075 1.28125,0.07422 0.09688,0.0068 0.192914,0.01751 0.289063,0.0293 0.07213,-0.0067 0.140265,0.0028 0.201172,0.02734 0.170124,0.02804 0.337951,0.06611 0.503906,0.115234 0.133603,0.04202 0.25978,0.103151 0.386712,0.162108 z m 0,10.384766 c -0.0025,5.6e-4 -0.0054,0.0014 -0.0078,0.002 -0.11406,0.01924 -0.227095,0.0343 -0.341797,0.04883 -0.103111,0.04694 -0.206734,0.09392 -0.3125,0.134765 -0.155978,0.05961 -0.321092,0.07684 -0.486328,0.08594 -0.222571,0.0081 -0.445275,0.0084 -0.667969,0.0098 -0.08452,4.4e-4 -0.169386,-2.29e-4 -0.253906,0 -0.08743,0.172405 -0.203271,0.340895 -0.412109,0.388672 -0.130392,0.02986 -0.273437,0.01871 -0.400391,-0.02344 -0.106753,-0.03544 -0.180784,-0.132689 -0.271484,-0.199219 -0.01974,-0.03189 -0.0418,-0.0624 -0.0625,-0.09375 -0.0039,0.04288 -0.0046,0.08598 -0.0078,0.128907 0.02484,0.05502 0.05206,0.11049 0.07031,0.167968 0.0395,0.124368 0.07179,0.318477 0.0293,0.445313 -0.0236,0.07044 -0.05059,0.131853 -0.08203,0.1875 0.02219,0.25395 -0.03413,0.509905 -0.07422,0.759765 -0.07171,0.413742 -0.104099,0.83251 -0.111329,1.251954 -3.4e-5,0.106652 0.0043,0.21375 0.0098,0.320312 H 22 Z" />
    </clipPath>
  </defs>
  <sodipodi:namedview
     id="namedview3"
     pagecolor="#ffffff"
     bordercolor="#000000"
     borderopacity="0.25"
     inkscape:showpageshadow="2"
     inkscape:pageopacity="0.0"
     inkscape:pagecheckerboard="0"
     inkscape:deskcolor="#d1d1d1"
     showguides="true"
     inkscape:zoom="37.041667"
     inkscape:cx="12.013498"
     inkscape:cy="12"
     inkscape:window-width="1870"
     inkscape:window-height="1136"
     inkscape:window-x="0"
     inkscape:window-y="0"
     inkscape:window-maximized="1"
     inkscape:current-layer="svg3" />
  <g
     transform="rotate(-90,10.877863,13.122137)"
     id="g3">
    <g
       id="g2"
       style="display:inline"
       transform="matrix(1,0,0,-1,0,26.244274)">
      <path
         id="path1"
         clip-path="url(#clipPath56)"
         d="M 14,12.3125 H 3 v -2 h 11 z m 0,-4 H 3 v -2 h 11 z m -4,8 H 3 v -2 h 7 z"
         transform="matrix(1,0,0,-1,0,26.244274)" />
    </g>
  </g>
  <rect
     style="display:inline;fill:#000000;fill-rule:evenodd"
     id="rect56"
     width="8.8965807"
     height="1.6467949"
     x="3.4212255"
     y="-15.683733"
     ry="0"
     transform="rotate(90)" />
  <rect
     style="display:inline;fill:#000000;fill-rule:evenodd"
     id="rect4"
     width="8.8965807"
     height="1.6467949"
     x="-12.107396"
     y="-15.793266"
     ry="0"
     transform="rotate(145)" />
  <rect
     style="display:inline;fill:#000000;fill-rule:evenodd"
     id="rect5"
     width="8.8965807"
     height="1.6467949"
     x="12.238353"
     y="-2.9006059"
     ry="0"
     transform="rotate(35)" />
</svg>
